<svg xmlns="http://www.w3.org/2000/svg" width="100" height="100" viewBox="0 0 100 100">
  <circle cx="50" cy="50" r="50" fill="#f0dc5a"/>
  <g>
    <circle cx="50" cy="50" r="32" fill="#d6b838" fill-opacity="0.28"/>
    <rect x="36" y="28" width="28" height="40" rx="14" fill="#4aa832"/>
    <rect x="18" y="36" width="20" height="12" rx="6" fill="#4aa832"/>
    <rect x="18" y="30" width="13" height="16" rx="6.5" fill="#4aa832"/>
    <rect x="62" y="41" width="20" height="12" rx="6" fill="#4aa832"/>
    <rect x="68" y="35" width="13" height="16" rx="6.5" fill="#4aa832"/>
    <line x1="34" y1="36" x2="28" y2="32" stroke="#c8f080" stroke-width="1"/>
    <line x1="34" y1="42" x2="28" y2="42" stroke="#c8f080" stroke-width="1"/>
    <line x1="66" y1="42" x2="72" y2="38" stroke="#c8f080" stroke-width="1"/>
    <line x1="66" y1="48" x2="72" y2="48" stroke="#c8f080" stroke-width="1"/>
    <line x1="50" y1="28" x2="50" y2="22" stroke="#c8f080" stroke-width="1"/>
    <line x1="44" y1="30" x2="41" y2="24" stroke="#c8f080" stroke-width="1"/>
    <line x1="56" y1="30" x2="59" y2="24" stroke="#c8f080" stroke-width="1"/>
    <circle cx="50" cy="26" r="5.5" fill="#ff6b9d"/>
    <circle cx="43" cy="24" r="4" fill="#ff6b9d"/>
    <circle cx="57" cy="24" r="4" fill="#ff6b9d"/>
    <circle cx="50" cy="26" r="3.2" fill="#ffe066"/>
    <ellipse cx="43.5" cy="43" rx="4" ry="4.5" fill="white"/>
    <circle cx="43.5" cy="44" r="2.5" fill="#1a2a0a"/>
    <circle cx="45" cy="42.5" r="0.9" fill="white"/>
    <ellipse cx="57" cy="43" rx="4" ry="4.5" fill="white"/>
    <circle cx="57" cy="44" r="2.5" fill="#1a2a0a"/>
    <circle cx="58.5" cy="42.5" r="0.9" fill="white"/>
    <path d="M40 38.5 Q43.5 36 47 38.5" stroke="#1a2a0a" stroke-width="1.3" fill="none" stroke-linecap="round"/>
    <path d="M44 53 Q50 58 56 55" stroke="#1a2a0a" stroke-width="1.8" fill="none" stroke-linecap="round"/>
    <ellipse cx="38" cy="51" rx="3.5" ry="2" fill="#f0c060" fill-opacity="0.7"/>
    <ellipse cx="62" cy="51" rx="3.5" ry="2" fill="#f0c060" fill-opacity="0.7"/>
  </g>
  <text x="50" y="80" text-anchor="middle" font-family="Fraunces, Georgia, serif" font-size="10" font-weight="700" fill="#2a2208" letter-spacing="1">CLEO</text>
  <circle cx="50" cy="90" r="3.5" fill="#a88810"/>
  <circle cx="50" cy="90" r="1.8" fill="#fff09a" fill-opacity="0.9"/>
</svg>
