<svg xmlns="http://www.w3.org/2000/svg" width="100" height="100" viewBox="0 0 100 100">
  <circle cx="50" cy="50" r="50" fill="#1e6aa8"/>
  <g>
    <circle cx="50" cy="50" r="32" fill="#0e4a7e" fill-opacity="0.3"/>
    <path d="M50 62 Q33 49 22 34" stroke="#6fc97a" stroke-width="2.4" fill="none" stroke-linecap="round"/>
    <ellipse cx="27" cy="41" rx="8" ry="4" fill="#6fc97a" transform="rotate(-50 27 41)"/>
    <ellipse cx="34" cy="51" rx="7" ry="3.5" fill="#8bd890" transform="rotate(-40 34 51)"/>
    <ellipse cx="41" cy="58" rx="6" ry="3" fill="#6fc97a" transform="rotate(-30 41 58)"/>
    <path d="M50 62 Q67 49 78 34" stroke="#6fc97a" stroke-width="2.4" fill="none" stroke-linecap="round"/>
    <ellipse cx="73" cy="41" rx="8" ry="4" fill="#8bd890" transform="rotate(50 73 41)"/>
    <ellipse cx="66" cy="51" rx="7" ry="3.5" fill="#6fc97a" transform="rotate(40 66 51)"/>
    <ellipse cx="59" cy="58" rx="6" ry="3" fill="#8bd890" transform="rotate(30 59 58)"/>
    <path d="M50 62 Q50 44 50 20" stroke="#6fc97a" stroke-width="2.4" fill="none" stroke-linecap="round"/>
    <ellipse cx="43" cy="30" rx="7" ry="3" fill="#6fc97a" transform="rotate(-20 43 30)"/>
    <ellipse cx="57" cy="30" rx="7" ry="3" fill="#8bd890" transform="rotate(20 57 30)"/>
    <ellipse cx="43" cy="40" rx="6" ry="2.5" fill="#8bd890" transform="rotate(-15 43 40)"/>
    <ellipse cx="57" cy="40" rx="6" ry="2.5" fill="#6fc97a" transform="rotate(15 57 40)"/>
    <ellipse cx="46.5" cy="19" rx="3.5" ry="4" fill="white"/>
    <circle cx="46.5" cy="20" r="2.2" fill="#0a2a4a"/>
    <ellipse cx="54" cy="19" rx="3.5" ry="4" fill="white"/>
    <circle cx="54" cy="20" r="2.2" fill="#0a2a4a"/>
    <path d="M45 24 Q50 28 55 24" stroke="#0a2a4a" stroke-width="1.5" fill="none" stroke-linecap="round"/>
  </g>
  <text x="50" y="80" text-anchor="middle" font-family="Fraunces, Georgia, serif" font-size="10" font-weight="700" fill="#eaf4ff" letter-spacing="1">FERNIE</text>
  <circle cx="50" cy="90" r="3.5" fill="#0e4a7e"/>
  <circle cx="50" cy="90" r="1.8" fill="#6aa8d6" fill-opacity="0.9"/>
</svg>
