<svg xmlns="http://www.w3.org/2000/svg" width="94.49" height="94.49" viewBox="0 0 94.49 94.49">
  <circle cx="47.24" cy="47.24" r="47.24" fill="#1a8080"></circle>
  <circle cx="47.24" cy="47.24" r="30" fill="#0d5050" fill-opacity="0.3"></circle>
  
  <path d="M47.24 60 Q31 47 20 32" stroke="#2ab870" stroke-width="2.5" fill="none" stroke-linecap="round"></path>
  <ellipse cx="25" cy="39" rx="8" ry="4" fill="#2ab870" transform="rotate(-50 25 39)"></ellipse>
  <ellipse cx="32" cy="49" rx="7" ry="3.5" fill="#38d080" transform="rotate(-40 32 49)"></ellipse>
  <ellipse cx="39" cy="56" rx="6" ry="3" fill="#2ab870" transform="rotate(-30 39 56)"></ellipse>
  
  <path d="M47.24 60 Q63 47 74 32" stroke="#2ab870" stroke-width="2.5" fill="none" stroke-linecap="round"></path>
  <ellipse cx="69" cy="39" rx="8" ry="4" fill="#38d080" transform="rotate(50 69 39)"></ellipse>
  <ellipse cx="62" cy="49" rx="7" ry="3.5" fill="#2ab870" transform="rotate(40 62 49)"></ellipse>
  <ellipse cx="55" cy="56" rx="6" ry="3" fill="#38d080" transform="rotate(30 55 56)"></ellipse>
  
  <path d="M47.24 60 Q47.24 42 47.24 18" stroke="#2ab870" stroke-width="2.5" fill="none" stroke-linecap="round"></path>
  <ellipse cx="40" cy="28" rx="7" ry="3" fill="#2ab870" transform="rotate(-20 40 28)"></ellipse>
  <ellipse cx="54.5" cy="28" rx="7" ry="3" fill="#38d080" transform="rotate(20 54.5 28)"></ellipse>
  <ellipse cx="40" cy="38" rx="6" ry="2.5" fill="#38d080" transform="rotate(-15 40 38)"></ellipse>
  <ellipse cx="54.5" cy="38" rx="6" ry="2.5" fill="#2ab870" transform="rotate(15 54.5 38)"></ellipse>
  
  <ellipse cx="43.5" cy="17" rx="3.5" ry="4" fill="white"></ellipse>
  <circle cx="43.5" cy="18" r="2.2" fill="#0d3020"></circle>
  <ellipse cx="51" cy="17" rx="3.5" ry="4" fill="white"></ellipse>
  <circle cx="51" cy="18" r="2.2" fill="#0d3020"></circle>
  
  <path d="M41 14 Q43.5 12 46 14" stroke="#0d3020" stroke-width="1.3" fill="none"></path>
  <path d="M48.5 14 Q51 12 53.5 14" stroke="#0d3020" stroke-width="1.3" fill="none"></path>
  
  <path d="M42 22 Q47.24 26 52.5 22" stroke="#0d3020" stroke-width="1.5" fill="none" stroke-linecap="round"></path>
  
  <text x="47.24" y="76" text-anchor="middle" font-family="Georgia, serif" font-size="9.5" font-weight="700" fill="white" letter-spacing="1">Fernie</text>
  
  <circle cx="47.24" cy="86" r="4" fill="#0a4040"></circle>
  <circle cx="47.24" cy="86" r="2" fill="#80e8e8" fill-opacity="0.9"></circle>
</svg>