<svg xmlns="http://www.w3.org/2000/svg" width="94.49" height="94.49" viewBox="0 0 94.49 94.49">
  
  <defs>
    <clipPath id="circle-clip">
      <circle cx="47.24" cy="47.24" r="47.24"></circle>
    </clipPath>
  </defs>
  
  <circle cx="47.24" cy="47.24" r="47.24" fill="#2d8c4e"></circle>
  
  <circle cx="47.24" cy="47.24" r="32" fill="#3ab56a" fill-opacity="0.35"></circle>
  
  <ellipse cx="47.24" cy="36" rx="21" ry="24" fill="#3ab56a"></ellipse>
  
  <path d="M31 28 Q22 33 24 43" stroke="#2d8c4e" stroke-width="2.8" fill="none" stroke-linecap="round"></path>
  <path d="M29 40 Q20 45 23 53" stroke="#2d8c4e" stroke-width="2.8" fill="none" stroke-linecap="round"></path>
  
  <path d="M63 28 Q72 33 70 43" stroke="#2d8c4e" stroke-width="2.8" fill="none" stroke-linecap="round"></path>
  <path d="M65 40 Q74 45 71 53" stroke="#2d8c4e" stroke-width="2.8" fill="none" stroke-linecap="round"></path>
  
  <line x1="47.24" y1="13" x2="47.24" y2="57" stroke="#1e7a3e" stroke-width="1.4"></line>
  
  <ellipse cx="40" cy="34" rx="4.5" ry="5.5" fill="white"></ellipse>
  <circle cx="40" cy="35" r="2.8" fill="#1a3a1a"></circle>
  <circle cx="41.2" cy="33.5" r="1" fill="white"></circle>
  <ellipse cx="54.5" cy="34" rx="4.5" ry="5.5" fill="white"></ellipse>
  <circle cx="54.5" cy="35" r="2.8" fill="#1a3a1a"></circle>
  <circle cx="55.7" cy="33.5" r="1" fill="white"></circle>
  
  <path d="M41 43 Q47.24 48 53 43" stroke="#1a3a1a" stroke-width="1.8" fill="none" stroke-linecap="round"></path>
  
  <ellipse cx="34" cy="42" rx="4" ry="2.5" fill="#60c87a" fill-opacity="0.6"></ellipse>
  <ellipse cx="60" cy="42" rx="4" ry="2.5" fill="#60c87a" fill-opacity="0.6"></ellipse>
  
  <text x="47.24" y="76" text-anchor="middle" font-family="Georgia, serif" font-size="10" font-weight="700" fill="white" letter-spacing="1">Monty</text>
  
  <circle cx="47.24" cy="86" r="4" fill="#1a5c32"></circle>
  <circle cx="47.24" cy="86" r="2" fill="#5ee8a0" fill-opacity="0.9"></circle>
  
  <circle cx="47.24" cy="47.24" r="47.24" fill="none" stroke="#ff0000" stroke-width="0.5" stroke-dasharray="3,3" opacity="0.3"></circle>
</svg>