<svg xmlns="http://www.w3.org/2000/svg" width="100" height="100" viewBox="0 0 100 100">
  <circle cx="50" cy="50" r="50" fill="#e8388a"/>
  <g>
    <circle cx="50" cy="50" r="32" fill="#9a1858" fill-opacity="0.32"/>
    <ellipse cx="34" cy="58" rx="12" ry="6" fill="#5a9a3a" transform="rotate(-20 34 58)"/>
    <ellipse cx="63" cy="54" rx="10" ry="5" fill="#4a8a2a" transform="rotate(15 63 54)"/>
    <ellipse cx="50" cy="24" rx="9" ry="13" fill="#ff7ab0"/>
    <ellipse cx="50" cy="24" rx="9" ry="13" fill="#ff7ab0" transform="rotate(72 50 24)"/>
    <ellipse cx="50" cy="24" rx="9" ry="13" fill="#f060a0" transform="rotate(144 50 24)"/>
    <ellipse cx="50" cy="24" rx="9" ry="13" fill="#ff7ab0" transform="rotate(216 50 24)"/>
    <ellipse cx="50" cy="24" rx="9" ry="13" fill="#f060a0" transform="rotate(288 50 24)"/>
    <circle cx="50" cy="24" r="9" fill="#fff0f5"/>
    <circle cx="50" cy="24" r="5" fill="#ffc850"/>
    <ellipse cx="47" cy="22" rx="2.8" ry="3.2" fill="white"/>
    <circle cx="47" cy="23" r="1.8" fill="#4a0e30"/>
    <circle cx="48" cy="21.5" r="0.7" fill="white"/>
    <ellipse cx="53.5" cy="22" rx="2.8" ry="3.2" fill="white"/>
    <circle cx="53.5" cy="23" r="1.8" fill="#4a0e30"/>
    <circle cx="54.5" cy="21.5" r="0.7" fill="white"/>
    <path d="M46 27 Q50 31 54.5 27" stroke="#4a0e30" stroke-width="1.4" fill="none" stroke-linecap="round"/>
    <line x1="20" y1="20" x2="24" y2="24" stroke="#ffd0e4" stroke-width="1.4" stroke-linecap="round"/>
    <line x1="24" y1="20" x2="20" y2="24" stroke="#ffd0e4" stroke-width="1.4" stroke-linecap="round"/>
    <line x1="74" y1="16" x2="78" y2="20" stroke="#ffd0e4" stroke-width="1.4" stroke-linecap="round"/>
    <line x1="78" y1="16" x2="74" y2="20" stroke="#ffd0e4" stroke-width="1.4" stroke-linecap="round"/>
    <circle cx="80" cy="32" r="2" fill="#ffd0e4"/>
  </g>
  <text x="50" y="80" text-anchor="middle" font-family="Fraunces, Georgia, serif" font-size="10" font-weight="700" fill="#fff0f7" letter-spacing="1">OLLIE</text>
  <circle cx="50" cy="90" r="3.5" fill="#9a1858"/>
  <circle cx="50" cy="90" r="1.8" fill="#ff8ac2" fill-opacity="0.9"/>
</svg>
