<svg xmlns="http://www.w3.org/2000/svg" width="100" height="100" viewBox="0 0 100 100">
  <circle cx="50" cy="50" r="50" fill="#f5f2ea"/>
  <g>
    <circle cx="50" cy="50" r="34" fill="#1d2a1b" fill-opacity="0.05"/>
    <circle cx="32" cy="32" r="9" fill="#2e6b35" stroke="#1d2a1b" stroke-width="1"/>
    <circle cx="68" cy="30" r="8" fill="#3a8043" stroke="#1d2a1b" stroke-width="1"/>
    <circle cx="26" cy="50" r="7" fill="#3a8043" stroke="#1d2a1b" stroke-width="1"/>
    <circle cx="74" cy="52" r="7" fill="#2e6b35" stroke="#1d2a1b" stroke-width="1"/>
    <circle cx="32" cy="32" r="1.2" fill="#1d2a1b"/>
    <circle cx="68" cy="30" r="1.2" fill="#1d2a1b"/>
    <circle cx="26" cy="50" r="1" fill="#1d2a1b"/>
    <circle cx="74" cy="52" r="1" fill="#1d2a1b"/>
    <line x1="32" y1="32" x2="50" y2="50" stroke="#1d2a1b" stroke-width="1.3"/>
    <line x1="68" y1="30" x2="50" y2="50" stroke="#1d2a1b" stroke-width="1.3"/>
    <line x1="26" y1="50" x2="50" y2="50" stroke="#1d2a1b" stroke-width="1.3"/>
    <line x1="74" y1="52" x2="50" y2="50" stroke="#1d2a1b" stroke-width="1.3"/>
    <circle cx="50" cy="52" r="14" fill="#4a9550" stroke="#1d2a1b" stroke-width="1.2"/>
    <circle cx="50" cy="52" r="1.4" fill="#1d2a1b"/>
    <ellipse cx="45" cy="49" rx="2" ry="2.4" fill="white"/>
    <circle cx="45" cy="49.5" r="1.3" fill="#0d1810"/>
    <ellipse cx="55" cy="49" rx="2" ry="2.4" fill="white"/>
    <circle cx="55" cy="49.5" r="1.3" fill="#0d1810"/>
    <path d="M45 55 Q50 58 55 55" stroke="#0d1810" stroke-width="1.3" fill="none" stroke-linecap="round"/>
    <ellipse cx="42" cy="54" rx="1.8" ry="1.2" fill="#ff9090" fill-opacity="0.55"/>
    <ellipse cx="58" cy="54" rx="1.8" ry="1.2" fill="#ff9090" fill-opacity="0.55"/>
  </g>
  <text x="50" y="80" text-anchor="middle" font-family="Fraunces, Georgia, serif" font-size="10" font-weight="700" fill="#1d2a1b" letter-spacing="1">PIP</text>
  <circle cx="50" cy="90" r="3.5" fill="#6a7360"/>
  <circle cx="50" cy="90" r="1.8" fill="#c8cfbc" fill-opacity="0.9"/>
</svg>
