<svg xmlns="http://www.w3.org/2000/svg" width="94.49" height="94.49" viewBox="0 0 94.49 94.49">
  <circle cx="47.24" cy="47.24" r="47.24" fill="#e05050"></circle>
  <circle cx="47.24" cy="47.24" r="30" fill="#c03030" fill-opacity="0.3"></circle>
  
  <ellipse cx="47.24" cy="28" rx="22" ry="10" fill="#c03050"></ellipse>
  <ellipse cx="47.24" cy="28" rx="22" ry="10" fill="#d04060" transform="rotate(45 47.24 36)"></ellipse>
  <ellipse cx="47.24" cy="28" rx="22" ry="10" fill="#b02840" transform="rotate(90 47.24 36)"></ellipse>
  <ellipse cx="47.24" cy="28" rx="22" ry="10" fill="#c03050" transform="rotate(135 47.24 36)"></ellipse>
  
  <ellipse cx="47.24" cy="31" rx="17" ry="8" fill="#e05070" transform="rotate(22.5 47.24 36)"></ellipse>
  <ellipse cx="47.24" cy="31" rx="17" ry="8" fill="#d04060" transform="rotate(67.5 47.24 36)"></ellipse>
  <ellipse cx="47.24" cy="31" rx="17" ry="8" fill="#e05070" transform="rotate(112.5 47.24 36)"></ellipse>
  <ellipse cx="47.24" cy="31" rx="17" ry="8" fill="#d04060" transform="rotate(157.5 47.24 36)"></ellipse>
  
  <circle cx="47.24" cy="36" r="13" fill="#f08090"></circle>
  <circle cx="47.24" cy="36" r="8" fill="#f9b0b8"></circle>
  
  <ellipse cx="43.5" cy="34" rx="3" ry="3.5" fill="white"></ellipse>
  <circle cx="43.5" cy="35" r="1.9" fill="#5a1020"></circle>
  <circle cx="44.5" cy="33.5" r="0.7" fill="white"></circle>
  <ellipse cx="51" cy="34" rx="3" ry="3.5" fill="white"></ellipse>
  <circle cx="51" cy="35" r="1.9" fill="#5a1020"></circle>
  <circle cx="52" cy="33.5" r="0.7" fill="white"></circle>
  
  <circle cx="44.5" cy="40" r="1.2" fill="#5a1020"></circle>
  <circle cx="47.5" cy="40" r="1.2" fill="#5a1020"></circle>
  <path d="M43.5 41 Q47.24 44.5 51 41" stroke="#5a1020" stroke-width="1.4" fill="none" stroke-linecap="round"></path>
  
  <ellipse cx="38" cy="40" rx="4" ry="2.5" fill="#ff8888" fill-opacity="0.6"></ellipse>
  <ellipse cx="56.5" cy="40" rx="4" ry="2.5" fill="#ff8888" fill-opacity="0.6"></ellipse>
  
  <text x="47.24" y="76" text-anchor="middle" font-family="Georgia, serif" font-size="10" font-weight="700" fill="white" letter-spacing="1.5">Suzy</text>
  
  <circle cx="47.24" cy="86" r="4" fill="#a02020"></circle>
  <circle cx="47.24" cy="86" r="2" fill="#ffaaaa" fill-opacity="0.9"></circle>
</svg>